<?xml version="1.0" encoding="utf-8"?>
<!-- Generator: Adobe Illustrator 25.0.1, SVG Export Plug-In . SVG Version: 6.00 Build 0)  -->
<svg version="1.0" id="Layer_1" xmlns="http://www.w3.org/2000/svg" xmlns:xlink="http://www.w3.org/1999/xlink" x="0px" y="0px"
	 viewBox="0 0 233.8 155.5" style="enable-background:new 0 0 233.8 155.5;" xml:space="preserve">
<style type="text/css">
	.st0{fill:#AB0334;}
	.st1{fill:#716F73;}
</style>
<path class="st0" d="M30.5,91.8c-0.3-1.5-0.2-3,0.4-4.3l-7.7-7.8c-1.1-1.1-1-2.9,0.1-4c1.1-1.1,2.9-1.1,4,0l2,2l-3,3l2.4,2.4
	l8.2-8.4l-2.4-2.4l-3,3l-2-1.9l0,0c-2.4-2.4-6.3-2.4-8.8,0s-2.4,6.3,0,8.8C20.8,82.2,30.5,91.8,30.5,91.8 M51.9,85
	c-1.5,0.3-3,0.2-4.3-0.4l-7.7,7.7c-1.1,1.1-2.9,1.1-4-0.1c0,0,0,0,0,0c-1.1-1.1-1.1-2.9,0-4l2-2l3,3l2.4-2.4l-8.5-8.3L32.4,81l3,3
	l-2,1.9l0,0c-2.4,2.4-2.4,6.4,0,8.8c2.4,2.4,6.4,2.4,8.8,0l0,0C42.2,94.8,51.9,85,51.9,85 M45,63.8c0.3,1.5,0.2,3-0.4,4.3l7.8,7.8
	c1.1,1.1,1.1,2.9-0.1,4c-1.1,1.1-2.9,1.1-4,0l-2-2l3-3L47,72.5l-8.3,8.4l2.4,2.4l3-3l1.9,2l0,0c2.5,2.4,6.4,2.3,8.8-0.2
	c2.3-2.4,2.3-6.2,0-8.6c-0.1,0-9.8-9.8-9.8-9.7 M23.7,70.6c1.5-0.3,3-0.2,4.4,0.4l7.7-7.8c1.1-1.1,2.9-1.1,4,0.1
	c1.1,1.1,1.1,2.9,0,4l-2,2l-3-3l-2.3,2.3l8.4,8.4l2.4-2.4l-3-3l2-2l0,0c2.4-2.4,2.4-6.4,0-8.8s-6.4-2.4-8.8,0
	C33.5,60.8,23.7,70.5,23.7,70.6"/>
<path class="st1" d="M66.9,89.7l0.7,0.5c0.1,0,0.2,0.1,0.1,0.2c0,0.1-0.1,0.1-0.1,0.2l-0.3,0.2V93l0.1,0.9c0,0.1-0.1,0.2-0.2,0.2
	s-0.2,0.1-0.4,0.1c-0.3,0-0.4-0.1-0.4-0.2v-0.4h-4v0.3c0,0.2-0.1,0.2-0.2,0.2s-0.2,0.1-0.4,0.1s-0.2-0.1-0.3-0.3l0.1-1.1v-2.5
	c0-0.3,0-0.5-0.1-0.8l0.9,0.4h4L66.9,89.7z M62.4,93.3h4.1v-1.3h-4.1V93.3z M62.4,91.8h4.1v-1.3h-4.1V91.8z M66.8,84.8l0.8,0.5
	c0.1,0,0.1,0.1,0.1,0.2s-0.1,0.1-0.2,0.2l-0.3-0.1c-0.7,0.1-1.5,0.2-2.4,0.3v1h2.9l0.6-0.7l0.8,0.6c0.1,0.1,0.2,0.2,0.2,0.2
	s-0.1,0.2-0.2,0.2h-3.9c0.3,0.3,0.7,0.5,1,0.8c0.4,0.2,0.9,0.4,1.3,0.6c0.6,0.2,1.2,0.3,1.8,0.4l0.1,0.3H69c-0.1,0-0.2,0.2-0.4,0.6
	c-0.5-0.2-1-0.4-1.5-0.8c-0.5-0.3-1-0.7-1.4-1.1c-0.3-0.3-0.6-0.6-0.8-0.9l0,0v2.2c0,0.1-0.1,0.2-0.2,0.3c-0.1,0.1-0.2,0.1-0.4,0.1
	c-0.2,0-0.3-0.1-0.3-0.3l0.1-1v-0.8c-0.2,0.3-0.4,0.6-0.8,0.8c-0.6,0.4-1.2,0.8-1.8,1.1c-0.6,0.3-1.2,0.6-1.8,0.8L59.6,90
	c0.5-0.3,1.1-0.6,1.6-0.9c0.5-0.3,0.9-0.6,1.3-1.1c0.3-0.3,0.6-0.6,0.8-1H61c-0.4,0-0.7,0-1.1,0.1l-0.2-0.5c0.4,0.1,0.9,0.1,1.3,0.1
	h3v-1c-0.8,0.1-1.9,0.2-3.3,0.2l-0.2-0.2c1.4-0.2,2.5-0.3,3.2-0.4C64.8,85.4,65.9,85.2,66.8,84.8"/>
<path class="st1" d="M75.2,84.9l1,0.2c0.1,0,0.3,0.1,0.3,0.2s-0.2,0.2-0.4,0.3v0.9h1.5v-0.8c0-0.2,0-0.4-0.1-0.6l1,0.2
	c0.2,0,0.3,0.1,0.3,0.2s-0.2,0.2-0.4,0.3v0.8H79l0.6-0.7l0.8,0.6c0.1,0.1,0.2,0.2,0.2,0.2s-0.1,0.2-0.2,0.2h-1.9v1.7h1l0.6-0.7
	l0.8,0.6c0.1,0.1,0.2,0.2,0.2,0.2s-0.1,0.2-0.2,0.2h-2.6c0.2,0.2,0.5,0.4,0.8,0.5c0.3,0.2,0.6,0.3,1,0.4c0.4,0.2,0.8,0.2,1.3,0.4
	l-0.1,0.2h-0.4c-0.1,0-0.2,0.2-0.4,0.6c-0.4-0.2-0.7-0.4-1-0.6c-0.3-0.3-0.6-0.6-0.9-0.9c-0.2-0.2-0.4-0.5-0.5-0.8h-1.4
	c-0.2,0.4-0.4,0.8-0.8,1.1l-0.1,0.1l0.2,0.1h2l0.4-0.4l0.6,0.5c0.1,0.1,0.2,0.2,0.2,0.2s-0.1,0.1-0.2,0.2l-0.3,0.1v0.7l0.1,0.9
	c0,0.1-0.1,0.2-0.2,0.2s-0.2,0.1-0.3,0.1c-0.1,0-0.4-0.1-0.4-0.2v-0.3h-1.9v0.8c0,0.2,0.1,0.4,0.4,0.4c0.5,0.1,1.1,0.1,1.7,0.1
	c0.5,0,1,0,1.4-0.1c0.2,0,0.3-0.1,0.4-0.2l0.4-1.2h0.2l-0.1,1c0,0.1,0.1,0.2,0.2,0.3c0.2,0.2,0.2,0.2,0.2,0.4s-0.1,0.2-0.2,0.3
	c-0.2,0.1-0.4,0.2-0.7,0.2C79.2,94,78.6,94.1,78,94c-0.7,0-1.3,0-1.9-0.2c-0.3,0-0.5-0.1-0.8-0.3c-0.2-0.2-0.2-0.4-0.2-0.7v-2.5
	c-0.1,0.1-0.2,0.2-0.4,0.3c-0.5,0.4-1,0.7-1.6,0.9l-0.2-0.2c0.3-0.2,0.6-0.4,0.9-0.7c0.3-0.2,0.5-0.5,0.8-0.8
	c0.3-0.4,0.5-0.8,0.8-1.3h-1.8l-0.8,2.7c-0.1,0.1-0.1,0.3-0.1,0.4c0,0.3,0.1,0.5,0.2,0.8c0.1,0.2,0.2,0.5,0.2,0.8
	c0,0.2-0.1,0.4-0.2,0.6c-0.1,0.1-0.2,0.2-0.4,0.2c-0.1,0-0.3-0.1-0.4-0.2c-0.1-0.2-0.2-0.4-0.2-0.6V93c0-0.2,0.1-0.3,0.1-0.4
	c0-0.2-0.1-0.4-0.2-0.6c-0.1-0.2-0.3-0.2-0.6-0.3v-0.3c0.1,0.1,0.2,0.1,0.4,0.2c0.2,0,0.2-0.2,0.4-0.4l1.9-4.3l0.2,0.2l-0.4,1.3h1.7
	v-1.7c-0.4,0-0.7,0-1.1,0.1l-0.2-0.5c0.4,0.1,0.8,0.1,1.3,0.2v-0.7C75.3,85.4,75.2,85.2,75.2,84.9 M75.8,91.6h2v-1.3h-2V91.6z
	 M76,88.5h1.5v-1.7H76V88.5z M71.3,87.6c0.4,0.1,0.8,0.3,1.1,0.6c0.2,0.2,0.4,0.3,0.4,0.4c0,0.2-0.1,0.4-0.3,0.4c0,0-0.1,0-0.1,0
	c-0.2,0-0.3-0.1-0.4-0.3c-0.2-0.4-0.5-0.7-0.9-1L71.3,87.6z M71.9,85.1c0.5,0.2,0.9,0.4,1.2,0.6c0.3,0.2,0.4,0.3,0.4,0.5
	s-0.2,0.4-0.5,0.4c-0.2,0-0.3-0.1-0.4-0.3c-0.2-0.4-0.5-0.8-0.9-1.1L71.9,85.1z"/>
<path class="st1" d="M86.5,85.2l0.8,0.4H91l0.4-0.4l0.6,0.5l0.2,0.2c0,0.1-0.1,0.1-0.2,0.2l-0.3,0.1v3.2l0.1,0.8
	c0,0.1-0.1,0.2-0.2,0.2s-0.2,0.1-0.3,0.1S91,90.3,91,90.1v-0.3h-1.5v1.6h1l0.6-0.7l0.8,0.6c0.1,0.1,0.2,0.2,0.2,0.2
	s-0.1,0.2-0.2,0.2h-2.4v1.9h1.5l0.7-0.7l0.8,0.6c0.1,0.1,0.2,0.2,0.2,0.2s-0.1,0.2-0.2,0.2h-5.8c-0.4,0-0.8,0-1.1,0.1l-0.2-0.5
	c0.4,0.1,0.9,0.1,1.3,0.2h2v-1.8h-1c-0.4,0-0.7,0-1.1,0.1v-0.4c0.4,0.1,0.9,0.1,1.3,0.2h1V90h-1.4v0.2c0,0.1-0.1,0.2-0.2,0.3
	c-0.1,0.1-0.2,0.1-0.4,0.1c-0.2,0-0.2-0.1-0.3-0.3l0.1-1v-3.3C86.6,85.5,86.6,85.3,86.5,85.2 M87.3,89.6h1.4v-1.7h-1.4V89.6z
	 M89.6,89.6h1.5v-1.7h-1.5V89.6z M87.3,87.6h1.4v-1.9h-1.4V87.6z M89.6,87.6h1.5v-1.9h-1.5V87.6z M85.6,85.4l0.8,0.5
	c0.1,0.1,0.1,0.1,0.1,0.2c0,0.1-0.1,0.2-0.2,0.2h-1.2v2.4H85l0.5-0.6l0.7,0.5c0,0,0.1,0.1,0.1,0.2c0,0.1-0.1,0.1-0.2,0.2h-1.2v2.2
	c0.5-0.1,0.9-0.2,1.4-0.4l0.1,0.2c-0.9,0.5-1.8,1.1-2.8,1.5l-0.1,0.4c0,0.1-0.1,0.1-0.2,0.2c-0.1,0-0.1-0.1-0.2-0.2l-0.3-1.1
	c0.5-0.1,0.9-0.2,1.3-0.4v-2.5c-0.3,0-0.7,0-1,0.1L83,88.4c0.4,0.1,0.8,0.1,1.3,0.2v-2.4c-0.4,0-0.7,0-1.1,0.1l-0.3-0.5
	c0.4,0.1,0.9,0.1,1.3,0.2h0.8L85.6,85.4z"/>
<path class="st1" d="M102.5,85.6l0.9,0.7c0.1,0.1,0.2,0.2,0.2,0.2s-0.1,0.2-0.2,0.2h-3.5v6.4h2.8l0.6-0.8l0.9,0.7
	c0.1,0.1,0.2,0.2,0.2,0.2s-0.1,0.2-0.2,0.2h-8c-0.4,0-0.9,0.1-1.3,0.2L94.5,93c0.5,0.1,1,0.1,1.5,0.2h2.8v-6.4h-2
	c-0.4,0-0.9,0.1-1.3,0.2l-0.2-0.6c0.5,0.1,1,0.1,1.5,0.2h5L102.5,85.6z"/>
<path class="st1" d="M110,84.9l1.1,0.2c0.2,0,0.2,0.1,0.2,0.2s-0.2,0.2-0.4,0.3c0,0.7,0,1.5-0.2,2.2h2.8l0.7-0.8l0.9,0.7
	c0.1,0.1,0.2,0.2,0.2,0.2S115.2,88,115,88h-4.1c0.3,0.8,0.7,1.5,1.1,2.2c0.4,0.7,1,1.3,1.6,1.8c0.6,0.5,1.2,0.9,1.9,1.1l-0.2,0.3
	c-0.2,0-0.3,0-0.4,0.1c-0.2,0-0.3,0.2-0.5,0.5c-0.6-0.4-1.1-0.8-1.6-1.3c-0.6-0.6-1-1.3-1.3-2.1c-0.4-0.8-0.6-1.6-0.8-2.4
	c0,0.1,0,0.2-0.1,0.3c-0.1,0.6-0.3,1.3-0.6,1.9c-0.2,0.5-0.5,1-0.9,1.4c-0.4,0.5-0.9,0.9-1.4,1.3c-0.4,0.3-1,0.7-1.7,1l-0.2-0.2
	c0.6-0.4,1.2-0.8,1.7-1.3c0.5-0.5,1-1,1.4-1.7c0.4-0.7,0.7-1.4,0.9-2.2c0.1-0.3,0.1-0.6,0.2-0.9h-2.6c-0.4,0-0.8,0-1.1,0.1l-0.2-0.5
	c0.4,0.1,0.9,0.1,1.3,0.2h2.7c0.1-0.6,0.1-1.2,0.1-1.7C110,85.5,110,85.1,110,84.9"/>
<path class="st1" d="M124.2,89.8l0.7,0.7c0.1,0.1,0.2,0.2,0.2,0.2c0,0.1-0.1,0.1-0.2,0.2h-0.4c-0.6,0.3-1.1,0.5-1.7,0.7v0.1
	c0,0.1-0.1,0.1-0.2,0.2v0.2h2.6l0.6-0.7l0.8,0.6c0.1,0.1,0.2,0.2,0.2,0.2s-0.1,0.2-0.2,0.2h-3.9v1.1c0,0.4-0.2,0.7-0.5,0.8
	c-0.3,0.1-0.5,0.2-0.8,0.2c0-0.2,0-0.4-0.1-0.6c-0.1-0.2-0.4-0.3-1-0.4V93l1.3,0.3c0.1,0,0.2-0.1,0.2-0.2c0,0,0,0,0,0v-0.9h-2.8
	c-0.4,0-0.8,0-1.1,0.1l-0.2-0.5c0.4,0.1,0.9,0.1,1.3,0.2h2.8c0-0.3,0-0.6-0.1-0.8l0.7,0.2c0.4-0.3,0.8-0.5,1.1-0.8h-3.1
	c-0.4,0-0.8,0-1.1,0.1L119,90c0.4,0.1,0.9,0.1,1.3,0.2h3.3L124.2,89.8z M120.1,84.8l0.7,0.6c0,0,0.1,0.1,0.1,0.2
	c0,0.1-0.1,0.2-0.2,0.2l0,0l-0.4-0.2c-0.5,0.1-0.9,0.2-1.3,0.2l0.1,0.8h0.6l0.4-0.4l0.6,0.4c0.1,0.1,0.1,0.1,0.1,0.2
	s-0.1,0.1-0.2,0.1h-1.5l0.1,0.9h0.6l0.4-0.4l0.6,0.4c0.1,0.1,0.1,0.1,0.1,0.2c0,0.1-0.1,0.2-0.2,0.2l0,0h-1.6l0.1,0.9h5.6l0.1-0.9
	h-0.1c-0.4,0-0.8,0-1.1,0.1l-0.2-0.5c0.4,0.1,0.9,0.1,1.3,0.2h0.2l0.1-0.9h-0.2c-0.4,0-0.7,0-1.1,0.1l-0.2-0.5
	c0.4,0.1,0.9,0.1,1.3,0.2h0.2l0.1-0.9h-0.2c-0.4,0-0.7,0-1.1,0.1l-0.2-0.5c0.4,0.1,0.9,0.1,1.3,0.2h0.2v-0.1l0.4-0.4l0.5,0.5
	c0.1,0.1,0.2,0.2,0.2,0.2s0,0.2-0.1,0.2l-0.2,0.2l-0.3,3h0.2l0.4-0.2l0.7,0.5c0.1,0.1,0.2,0.1,0.2,0.2s-0.1,0.1-0.2,0.2l-0.2,0.1
	c-0.3,0.3-0.6,0.6-1,0.9l-0.2-0.2c0.2-0.3,0.3-0.6,0.4-1h-7.5c0,0.2-0.1,0.4-0.1,0.6c-0.1,0.2-0.2,0.4-0.3,0.5
	c-0.1,0.1-0.2,0.1-0.3,0.2c-0.2,0-0.4-0.1-0.4-0.3c0,0,0-0.1,0-0.1c0-0.1,0.1-0.2,0.2-0.3s0.2-0.3,0.4-0.4c0.2-0.3,0.3-0.6,0.3-0.9
	l0.2,0.1c0,0.2,0,0.3,0.1,0.4h0.3l-0.2-3c0-0.3-0.1-0.6-0.2-0.9l0.8,0.4C119.4,85.3,119.7,85.1,120.1,84.8 M122.5,87l0.8,0.3
	c0.1,0,0.2,0.1,0.2,0.2l0,0c0,0.1-0.2,0.2-0.4,0.2l-0.2,0.2c0.1,0,0.1,0.1,0.2,0.1c0.2,0.1,0.4,0.3,0.5,0.5c0,0.2,0,0.2-0.1,0.2
	c-0.1,0.1-0.2,0.1-0.3,0.2c-0.2,0-0.2-0.1-0.4-0.3c-0.1-0.1-0.2-0.2-0.4-0.3c-0.2,0.1-0.4,0.2-0.5,0.3c-0.3,0.1-0.7,0.2-1,0.3
	l-0.1-0.2c0.2-0.1,0.3-0.1,0.4-0.2c0.2-0.1,0.4-0.2,0.5-0.4c0.1-0.1,0.2-0.2,0.2-0.2c-0.3-0.2-0.5-0.4-0.8-0.5l0.2-0.2
	c0.4,0.2,0.7,0.2,0.9,0.3C122.4,87.4,122.5,87.2,122.5,87 M122.6,85l0.8,0.3c0.1,0,0.2,0.1,0.2,0.2l0,0c0,0.1-0.2,0.2-0.4,0.2
	c-0.1,0.1-0.2,0.2-0.3,0.3l0,0c0.3,0.2,0.5,0.4,0.5,0.5c0,0.1,0,0.2-0.1,0.2c-0.1,0.1-0.1,0.1-0.2,0.1c-0.1,0-0.3-0.1-0.4-0.2
	l-0.2-0.2c-0.1,0.1-0.2,0.2-0.4,0.2c-0.3,0.2-0.7,0.3-1,0.4l-0.1-0.2c0.1-0.1,0.3-0.1,0.4-0.2c0.2-0.1,0.3-0.2,0.4-0.4l0.2-0.2
	c-0.3-0.3-0.6-0.5-0.9-0.7l0.2-0.2c0.4,0.1,0.7,0.3,1,0.4C122.4,85.5,122.4,85.3,122.6,85"/>
<path class="st1" d="M67.9,63.2h-0.4c-0.1-0.7,0-1.1-1-1.1h-2v6.8c0,0.8,0.5,0.9,1.2,0.9v0.3h-3.8v-0.3c0.7,0,1.2,0,1.2-0.9v-6.8
	h-1.8c-1.2,0-1.3,0.3-1.5,1.1h-0.4l0.2-2h0.3c0.2,0.3,0.5,0.4,0.8,0.4h6c0.4,0,0.8-0.1,0.8-0.4h0.3V63.2z"/>
<path class="st1" d="M75.5,66.2v-2.2c0-0.8-0.5-0.8-1-0.8V63h3.1v0.3c-0.6,0-1,0-1,0.8v5.1c0,0.8,0.5,0.8,1,0.8v0.3h-3.1v-0.3
	c0.6,0,1,0,1-0.8v-2.5H71v2.5c0,0.8,0.4,0.8,1,0.8v0.3H69v-0.3c0.6,0,1,0,1-0.8V64c0-0.8-0.5-0.8-1-0.8V63H72v0.3c-0.6,0-1,0-1,0.8
	v2.2L75.5,66.2L75.5,66.2z"/>
<path class="st1" d="M80.5,66.2h1.4c0.4,0.1,0.8-0.2,0.9-0.7c0-0.1,0-0.2,0-0.2H83c0,0.2-0.1,0.8-0.1,1.1s0.1,0.8,0.1,1.1h-0.2
	c0-1-0.4-1-1.2-1h-1.2v1.8c0,1.1,0.1,1.4,1.1,1.4h0.7c1.1-0.1,1.6-0.2,2-1.3l0.3,0.1c-0.2,0.5-0.3,1-0.4,1.6h-5.8v-0.3
	c1,0,1-0.2,1-1.1v-4.5c0-0.8-0.2-0.9-1-0.9V63h5.4v1.5l-0.2,0.1c-0.2-1-0.7-1.3-1.7-1.3h-1.3V66.2z"/>
<path class="st1" d="M95.7,65.4v-2.7c0-0.8-0.5-0.9-1.2-0.9v-0.3h3.7v0.3c-0.7,0-1.2,0-1.2,0.9v6.2c0,0.8,0.5,0.9,1.2,0.9v0.3h-3.8
	v-0.3c0.7,0,1.2,0,1.2-0.9v-3h-5.3v3c0,0.8,0.5,0.9,1.2,0.9v0.3h-3.7v-0.3c0.7,0,1.2,0,1.2-0.9v-6.2c0-0.8-0.5-0.9-1.2-0.9v-0.3h3.7
	v0.3c-0.7,0-1.2,0-1.2,0.9v2.7H95.7z"/>
<path class="st1" d="M102.8,62.8c2.1,0,3.8,1.6,3.9,3.7c-0.1,2.2-2,3.8-4.2,3.7c-2-0.1-3.5-1.7-3.7-3.6c0-2.1,1.8-3.8,3.9-3.8
	C102.7,62.8,102.7,62.8,102.8,62.8 M102.9,69.9c1.6,0,2.6-1.3,2.6-3.2c0-1.6-1-3.7-2.8-3.7c-1.6,0-2.6,1.3-2.6,3.2
	C100,67.8,101,69.9,102.9,69.9"/>
<path class="st1" d="M114.6,70.2h-0.2l-5.8-5.8v3.8c0,1.4,0.2,1.7,1.3,1.7v0.3h-3v-0.4c0.7,0,1.2,0,1.2-1.3v-4.1
	c0-0.9-0.4-1.2-1.3-1.2V63h1.9c0.4,0.6,1.5,1.6,2.7,2.8c0.9,1,2,2,2.7,2.7v-4c0-1-0.2-1.2-1.3-1.2V63h2.8v0.3c-0.7,0-1.1,0.1-1.1,1
	v5.9H114.6z"/>
<path class="st1" d="M123.1,64.8h-0.2c-0.3-1.2-1.3-1.7-2.6-1.7c-1.7,0-3.1,1.4-3.1,3.1c0,0.1,0,0.1,0,0.2c-0.1,1.8,1.3,3.4,3.1,3.5
	c0,0,0.1,0,0.1,0c0.5,0,1-0.1,1.5-0.4v-1.5c0-0.8-0.4-0.8-1-0.8V67h2.8v0.3c-0.4,0-0.8,0-0.8,0.8v1.3l0.2,0.2v0.2
	c-0.9,0.4-1.9,0.6-2.8,0.6c-2,0.3-3.9-1.2-4.2-3.2c-0.3-2,1.2-3.9,3.2-4.2c0.3,0,0.6,0,0.9,0c1,0,1.9,0.2,2.8,0.5L123.1,64.8z"/>
<path class="st1" d="M126.7,69.8c0.7,0,1.2,0,1.2-0.9v-6.2c0-0.8-0.5-0.9-1.2-0.9v-0.3h3.4v0.3c-0.5,0-1,0-1,0.9v6.2
	c0,0.8,0.5,0.9,1,0.9v0.3h-3.6v-0.3H126.7z M132.3,62.8c0.2-0.2,0.5-0.4,0.5-0.7s-0.4-0.3-0.8-0.3v-0.3h3v0.3
	c-0.8,0-1.2,0.1-2.4,1.3l-2.2,2.2c1.4,1.3,2.6,2.8,4,4c0.3,0.3,0.7,0.4,1.1,0.4v0.3h-2.2c-1.3-1.5-2.7-2.8-4.1-4.3L132.3,62.8z"/>
<path class="st1" d="M139.4,62.8c2,0.2,3.6,1.9,3.4,4c-0.2,2-1.9,3.6-4,3.4c-1.9-0.1-3.4-1.7-3.4-3.7
	C135.4,64.5,137.2,62.8,139.4,62.8C139.3,62.8,139.3,62.8,139.4,62.8 M139.5,70c1.6,0,2.6-1.3,2.6-3.2c0-1.6-1-3.7-2.8-3.7
	c-1.6,0-2.6,1.3-2.6,3.2C136.6,67.9,137.6,70,139.5,70"/>
<path class="st1" d="M151.3,70.2h-0.2l-5.8-5.8v3.8c0,1.4,0.1,1.7,1.3,1.7v0.3h-3v-0.4c0.7,0,1.2,0,1.2-1.3v-4.1
	c0-0.9-0.4-1.2-1.3-1.2V63h2c0.4,0.6,1.5,1.6,2.7,2.8c0.9,1,2,2,2.7,2.7v-4c0-1-0.2-1.2-1.4-1.2V63h2.8v0.3c-0.7,0-1,0.1-1,1
	L151.3,70.2L151.3,70.2z"/>
<path class="st1" d="M159.8,64.8h-0.2c-0.3-1.2-1.4-1.7-2.6-1.7c-1.7,0-3.1,1.4-3.1,3.1c0,0,0,0.1,0,0.1c-0.1,1.8,1.3,3.4,3.1,3.5
	c0,0,0.1,0,0.1,0c0.5,0,1-0.1,1.5-0.4v-1.5c0-0.8-0.4-0.8-1-0.8V67h2.9v0.3c-0.4,0-0.8,0-0.8,0.8v1.3l0.1,0.2v0.2
	c-0.9,0.3-1.9,0.6-2.9,0.6c-2,0.3-3.9-1.2-4.2-3.2c-0.3-2,1.2-3.9,3.2-4.2c0.3,0,0.6,0,0.9,0c1,0,1.9,0.2,2.9,0.5L159.8,64.8z"/>
<path class="st1" d="M59.7,73.2H63c1.3,0,3.3,0.5,3.3,2.4c-0.1,1.5-1.4,2.5-2.9,2.5h-0.7v-0.4h0.5c1-0.1,1.7-0.9,1.7-1.9
	c0,0,0-0.1,0-0.1c0.1-1.1-0.7-2.1-1.8-2.2c-0.1,0-0.2,0-0.4,0c-0.2,0-0.4,0-0.6,0.1v6.9c0,0.8,0.5,0.9,1.2,0.9v0.3h-3.8v-0.3
	c0.7,0,1.2,0,1.2-0.9v-5.8c0-1-0.2-1.2-1.2-1.2L59.7,73.2L59.7,73.2z"/>
<path class="st1" d="M71,74.4c2,0.2,3.6,1.9,3.4,4c-0.2,2-1.9,3.6-4,3.4c-1.9-0.1-3.4-1.7-3.4-3.7C67,76.1,68.8,74.4,71,74.4
	C70.9,74.4,70.9,74.4,71,74.4 M71.1,81.6c1.6,0,2.6-1.3,2.6-3.2c0-1.6-1-3.7-2.8-3.7c-1.6,0-2.6,1.3-2.6,3.2
	C68.3,79.5,69.2,81.6,71.1,81.6"/>
<path class="st1" d="M81.3,81.8h-5.7v-0.3c0.5,0,1-0.1,1-0.7v-5.2c0-0.8-0.4-0.8-1-0.8v-0.3h3.1v0.3c-0.6,0-1,0-1,0.8v4.7
	c0,0.8,0.2,1,1.7,1c1.3,0,1.7-0.3,2-1.3l0.2,0.1L81.3,81.8z"/>
<path class="st1" d="M85.6,80.8c0,0.8,0.4,0.8,1,0.8v0.3h-3.1v-0.3c0.6,0,1,0,1-0.8v-2.5l-2.3-2.9c-0.3-0.4-0.4-0.4-1-0.4v-0.3H84
	v0.3c-0.2,0-0.6,0-0.6,0.2c0.1,0.2,0.2,0.4,0.4,0.6l1.6,2l1.4-1.8c0.2-0.2,0.4-0.5,0.4-0.8c0-0.3-0.2-0.3-0.8-0.3v-0.3h2.2v0.3
	c-0.4,0-0.7,0.3-0.9,0.6l-2.1,2.6L85.6,80.8z"/>
<path class="st1" d="M96.3,75.9H96c0-0.5,0-0.9-0.9-0.9h-1.6v5.7c0,0.8,0.4,0.8,1,0.8v0.3h-3.1v-0.3c0.6,0,1,0,1-0.8v-5.7h-1.4
	c-1,0-1,0.2-1.2,0.9h-0.3l0.2-1.7h0.2c0.1,0.2,0.4,0.3,0.7,0.3h5c0.4,0,0.7-0.1,0.8-0.3h0.2L96.3,75.9z"/>
<path class="st1" d="M99.4,77.8h1.5c0.4,0.1,0.8-0.2,0.9-0.7c0-0.1,0-0.1,0-0.2h0.2c0,0.2-0.1,0.8-0.1,1.1s0.1,0.8,0.1,1.1h-0.2
	c0-1-0.4-1-1.2-1h-1.2v1.7c0,1.1,0.1,1.4,1.1,1.4h0.7c1-0.1,1.6-0.2,2-1.3l0.3,0.1c-0.2,0.5-0.3,1-0.4,1.6h-5.8v-0.3
	c1,0,1.1-0.2,1.1-1.1v-4.5c0-0.8-0.2-0.9-1.1-0.9v-0.3h5.4v1.5l-0.2,0.1c-0.2-1-0.7-1.3-1.7-1.3h-1.3L99.4,77.8z"/>
<path class="st1" d="M111.1,76.5h-0.3c-0.2-1.1-1.2-1.8-2.3-1.7c0,0,0,0,0,0c-1.7,0-3,1.3-3.1,2.9c0,0.1,0,0.2,0,0.3
	c-0.1,1.9,1.4,3.4,3.3,3.5c1.1,0,2.1-0.7,2.2-1.8l0.2,0.1l-0.2,1.5c-0.8,0.3-1.6,0.5-2.4,0.5c-2.6,0-4.2-1.6-4.2-3.8
	c0-2.1,2-3.6,4.2-3.6c0.9,0.1,1.8,0.2,2.6,0.5L111.1,76.5z"/>
<path class="st1" d="M118.5,77.8v-2.2c0-0.8-0.4-0.8-1-0.8v-0.3h3.1v0.3c-0.6,0-1,0-1,0.8v5.1c0,0.8,0.4,0.8,1,0.8v0.3h-3.1v-0.3
	c0.6,0,1,0,1-0.8v-2.5h-4.4v2.5c0,0.8,0.4,0.8,1,0.8v0.3H112v-0.3c0.6,0,1,0,1-0.8v-5.1c0-0.8-0.4-0.8-1-0.8v-0.3h3.1v0.3
	c-0.6,0-1,0-1,0.8v2.2H118.5z"/>
<path class="st1" d="M129.2,81.8H129l-5.8-5.8v3.8c0,1.4,0.2,1.7,1.3,1.7v0.3h-3v-0.3c0.7,0,1.2,0,1.2-1.3v-4.1
	c0-0.9-0.4-1.2-1.3-1.2v-0.3h2c0.4,0.6,1.5,1.6,2.7,2.8c0.9,1,1.9,2,2.7,2.7v-4c0-1-0.2-1.2-1.3-1.2v-0.3h2.8v0.3c-0.7,0-1,0.1-1,1
	L129.2,81.8L129.2,81.8z"/>
<path class="st1" d="M132.1,75.6c0-0.8-0.4-0.8-1-0.8v-0.3h3.1v0.3c-0.6,0-1,0-1,0.8v5.1c0,0.8,0.4,0.8,1,0.8v0.3h-3.1v-0.3
	c0.6,0,1,0,1-0.8V75.6z"/>
<path class="st1" d="M141.7,76.5h-0.3c-0.2-1.1-1.2-1.8-2.3-1.7c0,0,0,0,0,0c-1.7,0-3,1.3-3.1,2.9c0,0.1,0,0.2,0,0.3
	c-0.1,1.9,1.4,3.4,3.3,3.5c1.1,0.1,2.1-0.7,2.2-1.8l0.2,0.1l-0.2,1.5c-0.8,0.3-1.6,0.5-2.4,0.5c-2.6,0-4.2-1.6-4.2-3.8
	c0-2.1,2-3.6,4.2-3.6c0.9,0.1,1.8,0.2,2.6,0.5L141.7,76.5z"/>
<path class="st1" d="M153.9,73.5c-1.1,0-1.1,0.4-1.1,2V79c0,1.7-1.1,2.9-3.4,2.9c-2.2,0-3.5-1-3.5-3.1v-4.5c0-0.8-0.5-0.9-1.2-0.9
	v-0.3h3.7v0.3c-0.7,0-1.2,0-1.2,0.9v4.1c0,1.4,0.5,2.8,2.6,2.8c1.2,0.1,2.3-0.7,2.4-1.9c0-0.2,0-0.3,0-0.5v-3.6c0-2-0.1-1.9-1.3-2
	V73h3L153.9,73.5L153.9,73.5z"/>
<path class="st1" d="M162.4,81.8h-0.2l-5.8-5.8v3.8c0,1.4,0.1,1.7,1.3,1.7v0.3h-3v-0.3c0.7,0,1.2,0,1.2-1.3v-4.1
	c0-0.9-0.4-1.2-1.4-1.2v-0.3h1.9c0.4,0.6,1.5,1.6,2.7,2.8c0.9,1,1.9,2,2.7,2.7v-4c0-1-0.2-1.2-1.4-1.2v-0.3h2.8v0.3
	c-0.7,0-1,0.1-1,1v5.8L162.4,81.8z"/>
<path class="st1" d="M165.3,75.6c0-0.8-0.4-0.8-1-0.8v-0.3h3.1v0.3c-0.6,0-1,0-1,0.8v5.1c0,0.8,0.4,0.8,1,0.8v0.3h-3.1v-0.3
	c0.6,0,1,0,1-0.8V75.6z"/>
<path class="st1" d="M170.1,77.7c-0.3-0.7-0.6-1.3-0.8-2s-0.4-0.8-1.1-0.8v-0.3h3v0.3h-0.4c-0.1,0-0.3,0.1-0.3,0.2
	c0,0.3,0.6,1.6,0.7,1.9l1.5,3.5l0.8-2c0.3-0.7,0.6-1.3,0.8-2c0.2-0.4,0.3-0.8,0.4-1.2c0-0.4-0.4-0.4-0.8-0.4v-0.3h2.3v0.3
	c-0.3,0-0.6,0.1-0.8,0.4c-0.1,0.1-0.8,1.9-0.8,2l-2,4.7h-0.4L170.1,77.7z"/>
<path class="st1" d="M178.8,77.8h1.4c0.4,0.1,0.8-0.2,0.9-0.7c0-0.1,0-0.1,0-0.2h0.2c0,0.2-0.1,0.8-0.1,1.1s0.1,0.8,0.1,1.1h-0.2
	c0-1-0.4-1-1.2-1h-1.2v1.7c0,1.1,0.1,1.4,1.1,1.4h0.7c1.1-0.1,1.6-0.2,2-1.3l0.3,0.1c-0.2,0.5-0.3,1-0.4,1.6h-5.8v-0.3
	c1,0,1.1-0.2,1.1-1.1v-4.5c0-0.8-0.1-0.9-1.1-0.9v-0.3h5.4v1.5l-0.2,0.1c-0.1-1-0.7-1.3-1.8-1.3h-1.3L178.8,77.8L178.8,77.8z"/>
<path class="st1" d="M190.9,80.1h0.2c0.2,0.8,0.9,1.5,1.7,1.5c0.8,0.1,1.4-0.5,1.5-1.3c0,0,0-0.1,0-0.1c0-1.9-3.2-1.3-3.2-3.8
	c0-1.1,1-2,2.1-2c0.1,0,0.2,0,0.2,0c0.5,0,0.9,0.1,1.4,0.2l0.1,1.3h-0.2c-0.1-0.7-0.7-1.2-1.4-1.2c0,0-0.1,0-0.1,0
	c-0.7-0.1-1.3,0.4-1.3,1.1c0,0.1,0,0.1,0,0.2c0,1.9,3.4,1.3,3.4,3.8c0,1.3-1.3,2.1-2.6,2.1c-0.6,0-1.1-0.1-1.6-0.4L190.9,80.1z"/>
<path class="st1" d="M197.1,75.6c0-0.8-0.4-0.8-1-0.8v-0.3h3.1v0.3c-0.6,0-1,0-1,0.8v5.1c0,0.8,0.5,0.8,1,0.8v0.3h-3.1v-0.3
	c0.6,0,1,0,1-0.8V75.6z"/>
<path class="st1" d="M206.9,75.9h-0.3c0-0.5,0-0.9-0.9-0.9H204v5.7c0,0.8,0.4,0.8,1,0.8v0.3h-3.1v-0.3c0.6,0,1,0,1-0.8v-5.7h-1.5
	c-1,0-1,0.2-1.2,0.9H200l0.1-1.7h0.2c0.1,0.2,0.4,0.3,0.7,0.3h5c0.4,0,0.7-0.1,0.8-0.3h0.2L206.9,75.9z"/>
<path class="st1" d="M211.7,80.8c0,0.8,0.5,0.8,1,0.8v0.3h-3.1v-0.3c0.6,0,1,0,1-0.8v-2.5l-2.3-2.9c-0.3-0.4-0.4-0.4-1-0.4v-0.3h2.9
	v0.3c-0.1,0-0.6,0-0.6,0.2c0.1,0.2,0.2,0.4,0.4,0.6l1.6,2l1.3-1.8c0.2-0.2,0.4-0.5,0.4-0.8c0-0.3-0.2-0.3-0.8-0.3v-0.3h2.2v0.3
	c-0.4,0-0.7,0.3-0.9,0.6l-2.1,2.6V80.8z"/>
<path class="st1" d="M185.6,78.3v2.4c0,0.8,0.5,0.8,1,0.8v0.3h-3.1v-0.3c0.5,0,1-0.1,1-0.7v-5.2c0-0.8-0.4-0.8-1-0.8v-0.3h3.1
	c2.1,0,2.6,1.1,2.6,1.8c0,0.9-0.7,1.6-1.6,1.7c0.5,0.9,1.1,1.8,1.7,2.6c0.2,0.4,0.7,0.7,1.1,0.7v0.3h-1.7c-0.8-1.1-2.2-3.4-2.2-3.4
	L185.6,78.3z M186.3,74.9c-0.2,0-0.5,0-0.7,0.1v3c0.1,0,0.4,0.1,0.6,0.1c1.4,0,1.9-0.8,1.9-1.6C188.1,75.6,187.6,74.9,186.3,74.9"/>
</svg>
